<svg width="80" height="80" viewBox="0 0 80 80" fill="none" xmlns="http://www.w3.org/2000/svg">
<path d="M43.0667 7.53336L64.7667 19.2334C67.3 20.6 67.3 24.5 64.7667 25.8667L43.0667 37.5667C41.1333 38.6 38.8667 38.6 36.9333 37.5667L15.2333 25.8667C12.7 24.5 12.7 20.6 15.2333 19.2334L36.9333 7.53336C38.8667 6.50003 41.1333 6.50003 43.0667 7.53336Z" stroke="#DAB988" stroke-width="1.5" stroke-linecap="round" stroke-linejoin="round"/>
<path d="M12.0333 33.7667L32.2 43.8667C34.7 45.1333 36.3 47.7 36.3 50.5V69.5667C36.3 72.3333 33.4 74.1 30.9333 72.8667L10.7667 62.7667C8.26666 61.5 6.66666 58.9333 6.66666 56.1333V37.0667C6.66666 34.3 9.56666 32.5333 12.0333 33.7667Z" stroke="#DAB988" stroke-width="1.5" stroke-linecap="round" stroke-linejoin="round"/>
<path d="M67.9667 33.7667L47.8 43.8667C45.3 45.1333 43.7 47.7 43.7 50.5V69.5667C43.7 72.3333 46.6 74.1 49.0667 72.8667L69.2333 62.7667C71.7333 61.5 73.3333 58.9333 73.3333 56.1333V37.0667C73.3333 34.3 70.4333 32.5333 67.9667 33.7667Z" stroke="#DAB988" stroke-width="1.5" stroke-linecap="round" stroke-linejoin="round"/>
</svg>
