<svg width="16" height="17" viewBox="0 0 16 17" fill="none" xmlns="http://www.w3.org/2000/svg">
<path d="M10.6667 2.94873H5.33335C3.86059 2.94873 2.66669 4.15362 2.66669 5.63992V11.0223C2.66669 12.5086 3.86059 13.7135 5.33335 13.7135H10.6667C12.1394 13.7135 13.3334 12.5086 13.3334 11.0223V5.63992C13.3334 4.15362 12.1394 2.94873 10.6667 2.94873Z" stroke="white" stroke-opacity="0.8" stroke-linecap="round" stroke-linejoin="round"/>
<path d="M8 10.3495C9.10457 10.3495 10 9.44586 10 8.33113C10 7.21641 9.10457 6.31274 8 6.31274C6.89543 6.31274 6 7.21641 6 8.33113C6 9.44586 6.89543 10.3495 8 10.3495Z" stroke="white" stroke-opacity="0.8" stroke-linecap="round" stroke-linejoin="round"/>
<path d="M11 5.30347V5.30447" stroke="white" stroke-opacity="0.8" stroke-linecap="round" stroke-linejoin="round"/>
</svg>
