<svg width="32" height="34" viewBox="0 0 32 34" fill="none" xmlns="http://www.w3.org/2000/svg">
<path d="M28.1797 16.9999C28.1797 17.2612 28.088 17.5224 27.8914 17.7287L19.9351 26.0749C19.555 26.4737 18.9258 26.4737 18.5457 26.0749C18.1656 25.6762 18.1656 25.0162 18.5457 24.6174L25.8073 16.9999L18.5457 9.38244C18.1656 8.98369 18.1656 8.32369 18.5457 7.92494C18.9258 7.52619 19.555 7.52619 19.9351 7.92494L27.8914 16.2712C28.088 16.4774 28.1797 16.7387 28.1797 16.9999Z" fill="white"/>
<path d="M27.9569 16.9999C27.9569 17.5637 27.5113 18.0312 26.9739 18.0312H4.91382C4.37641 18.0312 3.93076 17.5637 3.93076 16.9999C3.93076 16.4362 4.37641 15.9687 4.91382 15.9687H26.9739C27.5113 15.9687 27.9569 16.4362 27.9569 16.9999Z" fill="white"/>
</svg>
