<svg width="16" height="17" viewBox="0 0 16 17" fill="none" xmlns="http://www.w3.org/2000/svg">
<path d="M5.99998 8.56084C5.47256 8.56084 4.95699 8.71868 4.51846 9.01439C4.07993 9.3101 3.73814 9.73041 3.5363 10.2222C3.33447 10.7139 3.28166 11.255 3.38455 11.7771C3.48745 12.2991 3.74142 12.7786 4.11436 13.155C4.4873 13.5314 4.96246 13.7877 5.47974 13.8915C5.99702 13.9953 6.5332 13.9421 7.02047 13.7384C7.50774 13.5347 7.92422 13.1897 8.21723 12.7472C8.51025 12.3046 8.66665 11.7843 8.66665 11.252V3.17847C8.66665 4.07065 9.01784 4.92629 9.64296 5.55716C10.2681 6.18803 11.1159 6.54245 12 6.54245" stroke="white" stroke-opacity="0.8" stroke-linecap="round" stroke-linejoin="round"/>
</svg>
